<svg width="26" height="26" viewBox="0 0 26 26" fill="none" xmlns="http://www.w3.org/2000/svg">
    <defs>
        <linearGradient id="gradient1" x1="0%" y1="0%" x2="100%" y2="100%">
            <stop offset="0%" style="stop-color:#FFAC5F; stop-opacity:1" />
            <stop offset="100%" style="stop-color:#FF4D3C; stop-opacity:1" />
        </linearGradient>
    </defs>
    <path d="M13.2542 15.9217L8.16929 18.2558C7.75249 18.4225 7.41906 18.0057 7.58578 17.6723L9.91985 12.5873C10.5034 11.4203 11.4203 10.42 12.5874 9.91983L17.7557 7.50239C18.1725 7.33567 18.5059 7.75247 18.3392 8.08591L16.0051 13.1709C15.4216 14.4213 14.4213 15.3382 13.2542 15.9217Z" fill="url(#gradient1)"/>
    <path d="M12.9208 3.3344C18.1725 3.3344 22.5072 7.58575 22.5072 12.9208C22.5072 18.1725 18.2558 22.5072 12.9208 22.5072C7.58575 22.5072 3.3344 18.2558 3.3344 12.9208C3.3344 7.58575 7.66911 3.3344 12.9208 3.3344ZM12.9208 0C5.8352 0 0 5.75183 0 12.9208C0 20.0897 5.75183 25.8416 12.9208 25.8416C20.0064 25.8416 25.8416 20.0897 25.8416 12.9208C25.8416 5.75183 20.0064 0 12.9208 0Z" fill="url(#gradient1)"/>
</svg>
